<svg xmlns="http://www.w3.org/2000/svg" width="512" height="512" viewBox="0 0 512 512">
    <path d="M256 50c-66.354 0-120.167 53.805-120.167 120.167 0 66.361 53.813 120.166 120.167 120.166s120.167-53.805 120.167-120.166c0-66.362-53.813-120.167-120.167-120.167zm0 206c-47.41 0-85.833-38.432-85.833-85.833 0-47.401 38.423-85.833 85.833-85.833 47.409 0 85.833 38.432 85.833 85.833 0 47.401-38.424 85.833-85.833 85.833zm25.481-74.082l26.019-25.004-35.758-4.929-15.742-32.48-15.742 32.481-35.758 4.929 26.018 25.004-6.337 35.541 31.819-17.034 31.818 17.033-6.337-35.541zm43.186 126.454v153.628l-67.93-51.5-69.404 51.5v-153.628c10.796 5.381 22.297 9.572 34.333 12.305v82.85l17.167-11.266v-68.6c5.633.621 11.366 1.006 17.167 1.006s11.534-.385 17.167-1.006v68.6l17.166 11.266v-82.85c12.054-2.733 23.537-6.924 34.334-12.305z"/>
</svg>
