<svg xmlns="http://www.w3.org/2000/svg" width="512" height="512" viewBox="0 0 512 512">
    <path d="M187.334 308.422v70.176c-13.513 18.055-29.204 34.568-47.192 49.068.486-14.215-2.766-28.633-6.236-40.334-16.328 5.23-35.439 5.364-49.571 1.006 36.78-26.857 60.066-57.268 75.02-97.736 8.599 6.923 18.003 12.841 27.979 17.82zm165.312-17.82c-8.6 6.924-18.005 12.842-27.98 17.82v70.176c13.513 18.055 29.204 34.568 47.192 49.068-.486-14.215 2.767-28.633 6.236-40.334 16.328 5.23 35.439 5.364 49.571 1.006-36.779-26.858-60.065-57.268-75.019-97.736zm23.52-120.435c0 66.362-53.812 120.167-120.166 120.167-66.353 0-120.166-53.806-120.166-120.167 0-66.362 53.813-120.167 120.166-120.167 66.354 0 120.166 53.805 120.166 120.167zm-34.332 0c0-47.401-38.424-85.833-85.834-85.833-47.409 0-85.833 38.432-85.833 85.833 0 47.401 38.424 85.833 85.833 85.833 47.41 0 85.834-38.432 85.834-85.833zm-54.016 47.292l-31.818-17.033-31.818 17.033 6.337-35.541-26.019-25.003 35.759-4.929 15.741-32.481 15.742 32.481 35.758 4.929-26.018 25.004 6.336 35.54zm-14.652 106.018v74.785l-16.193-10.679-18.139 11.635v-75.741c-12.004-1.492-23.504-4.51-34.334-8.902v147.425l52.221-33.461 50.779 33.461v-147.426c-10.83 4.393-22.33 7.41-34.334 8.903z"/>
</svg>
