<svg xmlns="http://www.w3.org/2000/svg" width="512" height="512" viewBox="0 0 512 512">
    <path d="M256 50c-66.353 0-120.167 53.805-120.167 120.167s53.813 120.167 120.167 120.167 120.166-53.806 120.166-120.167c0-66.362-53.812-120.167-120.166-120.167zm0 206c-47.41 0-85.833-38.432-85.833-85.833 0-47.401 38.424-85.833 85.833-85.833 47.41 0 85.834 38.432 85.834 85.833 0 47.401-38.424 85.833-85.834 85.833zm25.482-74.082l26.018-25.004-35.758-4.929-15.742-32.48-15.742 32.481-35.758 4.929 26.018 25.004-6.337 35.541 31.819-17.034 31.818 17.033-6.336-35.541zm-29.774 142.531l-63.922 137.551-23.001-63.269-63.285 23.035 61.911-133.209c8.667 7.912 18.273 14.803 28.751 20.318l-25.415 54.719 23.537 10.963 25.918-55.791c11.282 3.403 23.201 5.296 35.506 5.683zm158.792 97.417l-62.832-23.101-23.002 63.235-64.408-137.551c12.322-.387 24.275-2.264 35.574-5.7l26.152 55.808 23.219-11.064-25.482-54.567c10.479-5.499 20.084-12.354 28.734-20.269l62.045 133.209z"/>
</svg>
